<?xml version="1.0" encoding="utf-8"?>
<!-- Generator: Adobe Illustrator 17.0.0, SVG Export Plug-In . SVG Version: 6.00 Build 0)  -->
<!DOCTYPE svg PUBLIC "-//W3C//DTD SVG 1.1//EN" "http://www.w3.org/Graphics/SVG/1.1/DTD/svg11.dtd">
<svg version="1.1" id="Layer_2" xmlns="http://www.w3.org/2000/svg" xmlns:xlink="http://www.w3.org/1999/xlink" x="0px" y="0px"
	 width="176px" height="394.609px" viewBox="110.5 1.016 176 394.609" enable-background="new 110.5 1.016 176 394.609"
	 xml:space="preserve">
<g id="Layer_1-2">
	<g>
		<path fill="#FEFEFE" d="M276.689,0.275c3.524,0,7.049,0.018,10.573-0.018c0.591-0.006,0.81,0.113,0.692,0.705
			c-0.035,0.176-0.005,0.365-0.005,0.548c0,131.267-0.001,262.534,0.025,393.8c0,1.029-0.232,1.262-1.261,1.262
			c-58.127-0.029-116.254-0.029-174.382,0c-1.03,0-1.262-0.232-1.261-1.261c0.027-131.267,0.027-262.534,0-393.8
			c0-1.029,0.226-1.306,1.262-1.264c2.239,0.091,4.484,0.028,6.727,0.028c0.16,0.512-0.18,0.81-0.48,1.126
			c-2.336,0.61-4.178,1.948-5.211,4.11c-0.715,1.497-1.549,3.145-1.301,4.817c0.55,3.711,1.768,7.109,5.697,8.684
			c4.372,1.753,8.548,3.939,12.81,5.933c8.32,3.893,16.63,7.808,24.954,11.692c6.459,3.014,12.845,6.182,19.348,9.101
			c1.877,0.842,3.742,1.711,5.624,2.543c0.429,0.189,0.859,0.36,0.826,0.948c-0.028,0.504-0.397,0.672-0.79,0.835
			c-3.463,1.44-7.041,2.54-10.631,3.606c-1.534,0.455-2.989,1.127-4.506,1.633c-4.066,1.357-8.136,2.701-12.203,4.054
			c-2.902,0.966-5.827,1.864-8.717,2.865c-4.92,1.705-9.899,3.235-14.812,4.955c-2.278,0.797-4.618,1.449-6.785,2.571
			c-3.431,1.777-6.086,4.288-7.897,7.731c-1.163,2.211-2.117,4.456-2.244,6.984c-0.037,0.744-0.406,1.4-0.572,2.099
			c-0.287,1.202-0.319,2.45,0.172,3.641c0.21,0.51,0.411,1.022,0.453,1.577c0.408,5.368,3.227,9.434,7.131,12.818
			c2.231,1.934,5.005,3.025,7.767,3.969c2.894,0.989,5.795,1.968,8.679,2.983c4.051,1.426,8.129,2.776,12.157,4.261
			c4.889,1.803,9.905,3.255,14.743,5.166c2.512,0.992,5.139,1.586,7.618,2.658c2.089,0.904,4.318,1.474,6.451,2.292
			c0.623,0.239,1.266,0.398,1.25,1.219c-0.016,0.816-0.728,0.803-1.273,0.996c-5.688,2.014-11.439,3.837-17.171,5.719
			c-5.644,1.853-11.284,3.718-16.909,5.624c-6.061,2.053-12.251,3.746-18.188,6.134c-7.047,2.834-11.252,8.077-12.333,15.677
			c-0.129,0.907-0.237,1.809-0.487,2.694c-0.32,1.131-0.247,2.221,0.171,3.354c0.6,1.624,0.636,3.392,1.2,5.05
			c1.852,5.451,5.536,9.098,10.758,11.353c4.077,1.761,8.343,2.987,12.495,4.536c5.217,1.948,10.561,3.562,15.794,5.467
			c4.169,1.518,8.393,2.859,12.571,4.341c4.088,1.451,8.108,3.099,12.279,4.314c0.219,0.064,0.437,0.141,0.64,0.248
			c0.576,0.303,1.232,0.641,1.134,1.385c-0.093,0.708-0.862,0.535-1.35,0.686c-2.925,0.906-5.87,1.752-8.726,2.87
			c-2.423,0.949-4.991,1.464-7.409,2.396c-3.031,1.168-6.153,2.04-9.227,3.061c-3.598,1.195-7.203,2.368-10.822,3.503
			c-2.918,0.915-5.818,1.898-8.721,2.865c-3.116,1.038-6.233,2.086-9.219,3.495c-5.035,2.376-8.432,6.155-10.117,11.461
			c-1.514,4.766-1.597,9.631,0.005,14.301c2.22,6.472,6.697,10.869,13.377,12.872c2.757,0.827,5.414,1.958,8.141,2.882
			c3.716,1.259,7.394,2.629,11.097,3.927c5.427,1.901,10.866,3.766,16.293,5.666c5.002,1.751,9.937,3.692,15.015,5.224
			c0.31,0.094,0.607,0.2,0.861,0.408c0.819,0.669,0.755,1.297-0.219,1.736c-1.759,0.792-3.669,1.13-5.477,1.774
			c-4.133,1.473-8.311,2.807-12.482,4.162c-5.036,1.636-10.037,3.372-15.055,5.06c-5.665,1.906-11.371,3.688-17.019,5.651
			c-1.942,0.675-3.944,1.173-5.714,2.238c-1.876,1.128-3.703,2.345-4.953,4.223c-0.508,0.764-1.285,1.288-1.775,2.084
			c-3.469,5.634-3.899,11.653-2.329,17.934c1.277,5.108,4.44,8.819,8.714,11.692c1.998,1.343,4.295,2.022,6.536,2.799
			c5.225,1.813,10.431,3.675,15.629,5.564c2.746,0.998,5.542,1.858,8.293,2.857c3.346,1.215,6.753,2.268,10.113,3.452
			c2.967,1.046,5.907,2.165,8.867,3.224c2.062,0.738,4.164,1.373,6.241,2.073c0.571,0.192,1.218,0.4,1.186,1.135
			c-0.031,0.715-0.673,0.924-1.256,1.077c-3.897,1.022-7.603,2.623-11.456,3.773c-5.648,1.686-11.182,3.72-16.799,5.502
			c-3,0.952-5.991,1.959-8.947,3.064c-1.706,0.638-3.487,1.089-5.215,1.685c-3.705,1.278-7.553,2.194-11.115,3.815
			c-5.264,2.395-8.961,6.304-10.716,11.973c-0.593,1.914-0.799,3.823-0.9,5.775c-0.071,1.373,0.185,1.613,1.524,1.651
			c0.274,0.008,0.549,0.002,0.824,0.002c55.152,0,110.303-0.004,165.455,0.026c1.359,0.001,2.506-0.313,3.569-1.098
			c1.045-0.773,1.688-1.702,1.684-3.099c-0.029-9.886,0.106-19.774-0.083-29.657c-0.064-3.374,0.062-6.821-0.797-10.149
			c-0.893-3.459-2.399-6.576-4.999-9.139c-3.341-3.294-7.512-4.894-11.851-6.317c-4.731-1.552-9.481-3.048-14.188-4.678
			c-4.914-1.702-9.918-3.138-14.866-4.74c-3.821-1.238-7.585-2.663-11.432-3.823c-2.451-0.739-4.835-1.66-7.27-2.437
			c-0.643-0.205-1.508-0.266-1.54-1.115c-0.032-0.845,0.842-1.035,1.453-1.247c2.456-0.853,4.889-1.778,7.364-2.565
			c3.529-1.122,7.001-2.405,10.494-3.622c3.234-1.127,6.502-2.157,9.721-3.337c3.302-1.211,6.578-2.504,9.94-3.557
			c5.272-1.651,10.518-3.413,15.635-5.474c4.449-1.792,7.887-4.977,9.955-9.404c3.168-6.782,3.055-13.599-0.449-20.176
			c-2.262-4.246-5.839-7.23-10.445-8.833c-4.099-1.426-8.281-2.619-12.362-4.083c-4.043-1.45-8.133-2.745-12.218-4.052
			c-6.958-2.226-13.854-4.64-20.844-6.771c-2.44-0.744-4.806-1.739-7.272-2.422c-0.441-0.122-0.948-0.225-0.984-0.798
			c-0.037-0.593,0.402-0.901,0.88-1.101c1.516-0.636,3.087-1.131,4.633-1.684c4.641-1.658,9.32-3.202,13.95-4.898
			c4.028-1.476,8.127-2.778,12.179-4.188c3.446-1.199,6.882-2.448,10.332-3.639c3.15-1.087,6.267-2.272,9.449-3.266
			c4.177-1.304,7.986-3.285,10.739-6.764c2.564-3.241,4.112-6.983,4.524-11.146c0.703-7.097-1.483-13.162-6.67-18.035
			c-2.043-1.92-4.572-3.18-7.261-4.045c-5.566-1.79-11.083-3.728-16.648-5.521c-4.126-1.33-8.265-2.618-12.399-3.919
			c-3.741-1.178-7.418-2.58-11.164-3.751c-3.492-1.092-6.893-2.452-10.412-3.458c-0.91-0.26-2.219-0.478-2.204-1.527
			c0.014-1.012,1.366-0.905,2.185-1.214c2.219-0.839,4.456-1.629,6.708-2.37c6.033-1.986,11.999-4.165,17.998-6.248
			c4.22-1.466,8.442-2.954,12.657-4.435c3.87-1.36,7.707-2.846,11.651-4.015c4.094-1.213,7.84-3.137,10.649-6.44
			c2.363-2.778,3.943-5.941,4.629-9.628c0.574-3.085,0.65-6.096-0.067-9.091c-1.394-5.82-4.482-10.428-9.9-13.32
			c-2.68-1.43-5.621-2.083-8.421-3.143c-3.297-1.249-6.704-2.136-10.021-3.307c-3.401-1.201-6.857-2.239-10.264-3.424
			c-5.431-1.89-10.951-3.514-16.387-5.4c-2.75-0.954-5.496-1.979-8.349-2.64c-0.838-0.194-1.572-0.73-2.452-0.849
			c-0.333-0.045-0.587-0.275-0.595-0.654c-0.012-0.6,0.38-0.96,0.875-1.097c1.462-0.404,2.792-1.147,4.232-1.598
			c3.88-1.214,7.758-2.453,11.55-3.902c4.182-1.598,8.423-3.029,12.648-4.482c6.217-2.138,12.402-4.371,18.611-6.531
			c2.914-1.014,5.981-1.689,8.688-3.271c3.922-2.292,7.069-5.349,9.099-9.446c0.872-1.76,1.396-3.666,1.908-5.563
			c0.143-0.529,0.274-1.048,0.671-1.456c0.494-0.412,0.417-0.985,0.417-1.524c0.006-12.785,0.015-25.57,0-38.355
			c-0.001-0.646-0.032-1.28-0.412-1.834c-0.592-2.391-1.604-4.576-3.233-6.451c-0.412-0.694-0.985-1.182-1.779-1.39
			c-1.572-0.883-3.354-1.161-5.03-1.745C276.634,0.974,276.502,0.646,276.689,0.275z"/>
		<path fill="#FDFEFE" d="M118.51,1.099c0.183-0.275,0.366-0.549,0.549-0.824c52.543,0,105.087,0,157.63,0
			c0.092,0.275,0.183,0.549,0.275,0.824c-0.361,0.377-0.828,0.366-1.282,0.307c-1.642-0.214-3.29-0.128-4.935-0.128
			c-48.951-0.005-97.902-0.004-146.853-0.003c-1.326,0-2.653-0.04-3.973,0.154C119.421,1.502,118.907,1.514,118.51,1.099z"/>
		<path fill="#F6FBFB" d="M118.51,1.099c51.823-0.634,103.647-0.098,155.471-0.263c0.994-0.003,1.989,0.171,2.983,0.263
			c1.839,0.232,3.533,0.927,5.218,1.648c0.421,0.611,1.108,0.904,1.648,1.373c1.371,1.931,3.059,3.71,3.021,6.316
			c0.527,1.059,0.538,2.211,0.54,3.345c0.014,12.24,0.009,24.481,0.009,36.721c0,0.875-0.041,1.738-0.549,2.499
			c-0.565,1.931-1.04,3.894-1.72,5.783c-0.63,1.75-1.784,3.225-2.883,4.722c-2.266,3.087-5.314,5.277-8.686,6.82
			c-1.583,0.724-3.488,1.084-5.17,1.714c-2.177,0.815-4.395,1.503-6.575,2.301c-2.533,0.927-5.167,1.646-7.625,2.69
			c-2.386,1.013-4.901,1.577-7.268,2.61c-2.074,0.905-4.295,1.467-6.436,2.225c-3.121,1.104-6.214,2.292-9.347,3.361
			c-2.544,0.868-5.158,1.538-7.687,2.444c-1.349,0.483-2.614,1.199-4.028,1.538c-0.359,0.086-0.685,0.338-0.609,0.788
			c0.059,0.35,0.396,0.282,0.652,0.359c1.959,0.592,3.919,1.183,5.864,1.818c2.546,0.832,5.078,1.704,7.616,2.558
			c1.777,0.597,3.521,1.346,5.341,1.746c2.08,0.458,3.957,1.468,6.051,1.9c1.795,0.37,3.477,1.255,5.244,1.797
			c1.882,0.577,3.697,1.333,5.64,1.765c1.786,0.397,3.434,1.432,5.222,1.791c2.559,0.514,4.806,1.865,7.368,2.397
			c1.176,0.244,2.45,1.033,3.604,1.309c1.651,0.394,3.012,1.155,4.403,1.949c2.341,1.338,4.284,3.049,5.906,5.3
			c2.027,2.814,3.306,5.836,3.875,9.186c0.479,2.819,0.327,5.617-0.311,8.442c-1.109,4.908-3.467,8.855-7.527,11.96
			c-2.33,1.782-4.876,3.026-7.551,3.831c-3.02,0.909-5.894,2.2-8.94,3.027c-2.638,0.716-5.208,1.705-7.774,2.663
			c-4.419,1.65-8.881,3.174-13.35,4.681c-3.591,1.211-7.073,2.761-10.699,3.841c-1.875,0.558-3.716,1.248-5.592,1.803
			c-1.738,0.514-3.48,1.193-5.307,1.843c0.863,1.223,2.187,1.321,3.307,1.657c2.458,0.737,4.803,1.833,7.266,2.47
			c2.628,0.679,5.136,1.696,7.73,2.457c1.6,0.47,3.217,1.03,4.806,1.609c1.978,0.721,3.96,1.44,6.03,1.891
			c1.095,0.239,2.195,0.548,3.221,0.991c3.229,1.395,6.667,2.156,9.954,3.366c2.441,0.899,4.919,1.711,7.38,2.536
			c2.197,0.737,4.423,1.368,6.508,2.393c3.641,1.789,6.333,4.518,8.38,8.037c0.826,1.42,1.631,2.957,1.886,4.399
			c0.566,3.201,1.44,6.431,0.566,9.809c-0.529,2.045-0.927,4.166-1.859,6.02c-1.06,2.108-2.328,4.173-4.139,5.803
			c-1.88,1.693-3.902,3.186-6.279,4.077c-2.939,1.101-5.926,2.075-8.891,3.108c-2.591,0.903-5.174,1.828-7.771,2.713
			c-3.742,1.275-7.439,2.675-11.198,3.908c-1.771,0.581-3.542,1.339-5.315,1.87c-2.16,0.648-4.12,1.78-6.351,2.255
			c-1.686,0.359-3.278,1.163-4.944,1.693c-1.515,0.482-3.001,1.068-4.516,1.569c-1.575,0.521-3.081,1.244-4.698,1.655
			c-0.414,0.105-0.808,0.367-0.78,0.832c0.032,0.529,0.569,0.346,0.882,0.427c3.771,0.968,7.332,2.566,11.067,3.646
			c2.303,0.666,4.598,1.378,6.844,2.213c2.7,1.003,5.469,1.805,8.178,2.781c1.808,0.651,3.724,1.267,5.672,1.656
			c1.66,0.332,3.242,1.061,4.857,1.619c3.769,1.301,7.516,2.67,11.312,3.885c2.739,0.877,5.581,1.488,8.051,3.023
			c4.341,2.698,7.496,6.325,9.021,11.344c0.679,2.235,1.206,4.542,1.133,6.762c-0.072,2.193-0.275,4.473-1.079,6.685
			c-0.764,2.102-1.524,4.16-2.835,5.945c-2.444,3.326-5.558,5.739-9.487,7.246c-2.143,0.822-4.333,1.629-6.475,2.392
			c-3.077,1.097-6.191,2.186-9.345,3.113c-2.325,0.683-4.552,1.696-6.858,2.452c-2.607,0.854-5.145,1.89-7.788,2.661
			c-3.058,0.893-6.002,2.172-9.012,3.235c-1.699,0.6-3.431,1.104-5.149,1.649c-0.945,0.3-1.84,0.716-2.803,0.995
			c-1.856,0.537-3.642,1.316-5.461,1.983c-0.346,0.127-0.774,0.177-0.705,0.668c0.052,0.372,0.425,0.426,0.735,0.513
			c3.192,0.889,6.275,2.11,9.446,3.074c1.856,0.565,3.734,1.205,5.57,1.909c2.108,0.808,4.325,1.453,6.498,2.152
			c3.767,1.212,7.561,2.338,11.308,3.629c3.09,1.065,6.218,2.084,9.371,3.003c4.013,1.171,7.994,2.524,11.855,4.123
			c3.417,1.415,6.409,3.693,8.513,6.742c1.75,2.535,3.022,5.426,3.225,8.61c0.067,1.045,0.367,2.042,0.456,3.087
			c0.067,0.797,0.089,1.51-0.176,2.251c-0.09,0.252-0.235,0.591-0.139,0.785c1.012,2.052,0.455,4.23,0.473,6.336
			c0.074,8.695,0.013,17.392,0.047,26.088c0.006,1.568-0.924,2.341-2.004,3.237c-1.384,1.148-2.914,1-4.478,1
			c-55.151-0.001-110.302,0-165.453-0.001c-1.844,0-1.917-0.003-1.889-1.731c0.026-1.596-0.028-3.267,0.421-4.765
			c0.639-2.132,1.33-4.301,2.692-6.148c1.456-1.975,2.813-4.012,5.026-5.3c2.177-1.266,4.32-2.482,6.753-3.308
			c2.337-0.794,4.72-1.506,7.043-2.38c1.739-0.655,3.55-1.282,5.415-1.675c1.536-0.323,2.994-1.013,4.478-1.542
			c2.496-0.889,5.033-1.643,7.53-2.517c2.726-0.954,5.398-2.114,8.184-2.833c2.588-0.668,5.056-1.655,7.605-2.414
			c2.437-0.725,4.83-1.598,7.239-2.417c1.023-0.348,2.034-0.721,3.109-0.908c0.466-0.081,1.113-0.196,1.081-0.832
			c-0.026-0.52-0.619-0.597-1.041-0.746c-2.497-0.88-5.018-1.713-7.523-2.541c-2.925-0.967-5.794-2.105-8.711-3.087
			c-2.493-0.84-5.036-1.586-7.484-2.612c-2.717-1.138-5.571-1.947-8.362-2.911c-2.98-1.03-5.955-2.077-8.934-3.112
			c-1.921-0.668-3.869-1.264-5.761-2.006c-3.101-1.217-6.424-1.906-9.23-3.835c-3.301-2.27-5.984-5.047-7.623-8.787
			c-1.219-2.782-1.67-5.638-1.837-8.665c-0.123-2.226,0.413-4.322,0.439-6.485c0.007-0.609,0.385-1.014,0.581-1.507
			c0.889-2.23,1.844-4.36,3.492-6.26c1.261-1.453,2.621-2.754,4.106-3.86c1.894-1.41,4.062-2.393,6.448-2.897
			c1.703-0.359,3.335-1.071,4.983-1.666c1.942-0.702,3.873-1.41,5.891-1.901c1.562-0.38,3.048-1.067,4.575-1.598
			c1.719-0.597,3.418-1.28,5.178-1.717c1.107-0.275,2.081-0.847,3.194-1.089c2.042-0.443,3.972-1.289,5.939-1.964
			c3.229-1.108,6.496-2.099,9.736-3.168c2.593-0.855,5.099-1.973,7.791-2.552c1.291-0.278,2.526-0.813,3.783-1.244
			c0.211-0.072,0.489-0.201,0.383-0.47c-0.171-0.436-0.528-0.898-0.955-0.899c-0.871,0-1.539-0.548-2.324-0.681
			c-1.866-0.318-3.491-1.284-5.27-1.836c-2.32-0.72-4.617-1.54-6.864-2.462c-3.222-1.322-6.574-2.272-9.837-3.474
			c-3.602-1.328-7.243-2.609-10.899-3.802c-3.234-1.056-6.385-2.321-9.597-3.416c-3.337-1.138-6.746-2.096-9.919-3.643
			c-3.266-1.593-5.82-3.994-7.699-7.171c-0.959-1.622-1.743-3.282-2.445-5.017c-0.34-0.839-0.355-1.704-0.454-2.525
			c-0.396-3.273-0.613-6.615,0.276-9.81c0.76-2.733,1.859-5.326,3.716-7.664c2.933-3.693,6.824-5.545,11.044-7.182
			c3.104-1.204,6.29-2.142,9.415-3.264c2.629-0.944,5.345-1.694,8.001-2.593c2.674-0.906,5.381-1.705,8.039-2.676
			c2.158-0.788,4.453-1.26,6.612-2.088c1.891-0.725,3.822-1.381,5.748-1.919c3.316-0.926,6.442-2.371,9.758-3.269
			c1.294-0.351,2.539-0.883,3.976-1c-0.211-0.86-0.859-1.112-1.553-1.345c-3.122-1.047-6.304-1.948-9.341-3.203
			c-3.789-1.565-7.733-2.641-11.581-4.013c-5.223-1.862-10.433-3.768-15.741-5.407c-2.093-0.646-4.174-1.583-6.249-2.372
			c-1.912-0.727-3.965-1.23-5.878-1.966c-3.329-1.281-6.781-2.267-9.605-4.777c-2.355-2.094-4.291-4.364-5.447-7.25
			c-0.711-1.774-1.278-3.596-1.368-5.578c-0.044-0.954-0.985-1.852-0.71-2.961c0.608-2.456,0.731-4.991,1.444-7.449
			c0.842-2.899,2.304-5.375,4.303-7.522c2.024-2.173,4.433-3.915,7.229-4.998c2.507-0.971,5.017-1.995,7.611-2.667
			c3.186-0.825,6.215-2.098,9.386-2.957c2.462-0.667,4.836-1.657,7.259-2.473c4-1.347,8.022-2.631,12.008-4.018
			c2.573-0.895,5.167-1.751,7.754-2.574c3.04-0.967,6.011-2.166,9.116-2.928c0.363-0.089,0.6-0.199,0.587-0.599
			c-0.014-0.425-0.258-0.623-0.654-0.757c-3.332-1.133-6.631-2.372-9.993-3.408c-3.625-1.117-7.055-2.79-10.696-3.806
			c-4.521-1.262-8.772-3.259-13.284-4.543c-2.849-0.811-5.544-2.154-8.383-3.009c-2.656-0.8-5.271-1.747-7.867-2.675
			c-2.135-0.764-4.309-1.624-6.283-2.973c-2.177-1.486-4.083-3.166-5.428-5.348c-1.59-2.579-3.395-5.129-3.313-8.419
			c0.038-1.531-1.29-2.886-0.788-4.487c0.701-2.235,0.713-4.593,1.452-6.838c0.999-3.035,2.611-5.663,4.724-7.969
			c1.433-1.564,3.243-2.777,5.193-3.611c2.844-1.216,5.748-2.294,8.747-3.115c1.811-0.496,3.536-1.299,5.321-1.901
			c1.732-0.585,3.499-1.066,5.237-1.637c1.71-0.562,3.378-1.238,5.119-1.723c1.886-0.525,3.753-1.146,5.573-1.867
			c1.067-0.423,2.181-0.898,3.235-1.136c1.73-0.391,3.359-1.025,4.987-1.626c1.865-0.688,3.826-1.049,5.645-1.936
			c1.545-0.754,3.315-1.038,4.965-1.591c2.97-0.994,5.924-2.036,8.888-3.051c0.264-0.09,0.342-0.274,0.359-0.515
			c0.021-0.293-0.18-0.317-0.405-0.415c-3.013-1.309-6.031-2.61-9.016-3.983c-2.34-1.076-4.646-2.227-6.946-3.388
			c-2.109-1.065-4.29-1.963-6.442-2.928c-3.249-1.456-6.353-3.245-9.628-4.636c-2.954-1.255-5.746-2.828-8.715-4.054
			c-3.247-1.341-6.336-3.057-9.543-4.5c-4.342-1.954-8.554-4.187-12.964-5.993c-2.916-1.194-4.522-3.444-5.204-6.488
			c-0.202-0.9-0.758-1.699-0.608-2.709c0.524-3.545,1.708-6.652,5.116-8.471C117.333,1.281,117.988,1.475,118.51,1.099z"/>
		<path fill="#FAFDFD" d="M286.85,53.001c0.62-13.009,0.106-26.025,0.275-39.037c0.015-1.185-0.453-2.332-0.275-3.529
			c0.731,0.433,0.826,1.136,0.826,1.895c-0.003,13.101-0.007,26.202,0.011,39.303C287.687,52.316,287.52,52.783,286.85,53.001z"/>
		<path fill="#FDFEFE" d="M283.829,4.12c-0.716-0.258-1.471-0.468-1.648-1.373C282.865,3.043,283.462,3.443,283.829,4.12z"/>
	</g>
</g>
</svg>
