<?xml version="1.0" encoding="utf-8"?>
<!-- Generator: Adobe Illustrator 17.0.0, SVG Export Plug-In . SVG Version: 6.00 Build 0)  -->
<!DOCTYPE svg PUBLIC "-//W3C//DTD SVG 1.1//EN" "http://www.w3.org/Graphics/SVG/1.1/DTD/svg11.dtd">
<svg version="1.1" id="Layer_1" xmlns="http://www.w3.org/2000/svg" xmlns:xlink="http://www.w3.org/1999/xlink" x="0px" y="0px"
	 width="298px" height="197px" viewBox="-14 -16 298 197" enable-background="new -14 -16 298 197" xml:space="preserve">
<path opacity="0.82" fill="#F5F3F3" enable-background="new    " d="M0,6.004v168.992C0,178.311,3.563,181,7.957,181h165.514
	c4.394,0,7.957-2.689,7.957-6.004v-28.979c0-3.316,3.563-6.005,7.957-6.005h86.658c4.394,0,7.957-2.688,7.957-6.004V6.004
	C284,2.689,280.437,0,276.043,0H7.957C3.563,0,0,2.689,0,6.004z"/>
<g>
	<path fill="#00A9A5" d="M8.164-13.133c0.149-0.14,0.297-0.28,0.446-0.42c0.131-0.069,0.263-0.127,0.417-0.069
		c0.089,0.034,0.155,0.096,0.226,0.156c2.677,2.841,5.353,5.681,8.029,8.522c0.114,0.121,0.214,0.253,0.279,0.408
		c0.036,0.239,0.026,0.468-0.151,0.659C16.606-3.118,15.8-2.359,14.995-1.6c-0.167,0.107-0.317,0.239-0.521,0.282
		c-0.404,0.085-0.797,0.068-1.17-0.118c-0.773-0.385-1.53-0.8-2.3-1.191c-0.406-0.206-0.805-0.424-1.211-0.631
		C9.752-3.278,9.714-3.308,9.652-3.306c0.015,0.13,0.082,0.238,0.137,0.347c0.186,0.368,0.348,0.747,0.526,1.119
		c0.29,0.606,0.57,1.217,0.856,1.825c0.083,0.177,0.174,0.35,0.232,0.538c0.145,0.468,0.099,0.922-0.177,1.319
		c-0.345,0.495-0.81,0.827-1.447,0.821c-0.317-0.003-0.602-0.129-0.88-0.275C8.304,2.077,7.711,1.761,7.112,1.456
		C6.57,1.18,6.036,0.89,5.492,0.617C5.482,0.611,5.472,0.601,5.454,0.61c0.157,0.376,0.345,0.737,0.508,1.11
		C6.177,2.211,6.42,2.689,6.641,3.177C6.797,3.521,6.966,3.86,7.127,4.203c0.236,0.502,0.238,1.003-0.025,1.496
		c-0.125,0.235-0.319,0.416-0.528,0.57C6.042,6.662,5.477,6.695,4.884,6.397c-0.84-0.422-1.667-0.868-2.505-1.295
		c-0.333-0.17-0.662-0.348-0.998-0.514C1.362,4.58,1.345,4.566,1.319,4.571c-0.033,0.032-0.006,0.061,0.007,0.09
		c0.341,0.741,0.691,1.478,1.036,2.218c0.212,0.455,0.428,0.908,0.636,1.364C3.26,8.817,3.115,9.529,2.664,9.971
		c-0.257,0.251-0.537,0.457-0.896,0.521c-0.375,0.067-0.734,0.014-1.076-0.165C-0.25,9.832-1.196,9.348-2.137,8.853
		c-0.211-0.111-0.422-0.22-0.634-0.328c-0.032-0.016-0.064-0.044-0.115-0.026c0.067,0.189,0.161,0.365,0.244,0.544
		c0.407,0.875,0.823,1.746,1.228,2.622c0.093,0.201,0.199,0.396,0.27,0.606c0.209,0.611,0.097,1.162-0.359,1.62
		c-0.622,0.623-1.272,1.217-1.913,1.82c-0.037,0.035-0.075,0.068-0.118,0.097c-0.128,0.086-0.195,0.088-0.326,0.003
		c-0.061-0.027-0.101-0.077-0.145-0.123c-2.856-3.031-5.712-6.062-8.567-9.094c-0.031-0.033-0.073-0.06-0.086-0.109
		c0.112-0.105,0.223-0.21,0.335-0.315c0.397-0.33,0.845-0.311,1.302-0.178c0.204,0.059,0.38,0.188,0.567,0.288
		c1.031,0.551,2.056,1.112,3.087,1.663c0.029,0.016,0.056,0.039,0.105,0.033C-7.271,7.905-7.301,7.84-7.33,7.778
		c-0.391-0.845-0.756-1.701-1.139-2.549c-0.144-0.318-0.288-0.635-0.424-0.956c-0.16-0.376-0.153-0.76-0.043-1.148
		c0.045-0.157,0.169-0.26,0.257-0.388c0.18-0.169,0.359-0.339,0.539-0.508c0.21-0.162,0.441-0.259,0.712-0.268
		c0.283-0.009,0.552,0.038,0.799,0.173c0.879,0.481,1.769,0.944,2.644,1.433c0.296,0.165,0.599,0.318,0.904,0.48
		c0.024-0.054-0.002-0.091-0.018-0.127c-0.5-1.094-0.971-2.201-1.471-3.294c-0.105-0.229-0.212-0.457-0.242-0.708
		c-0.051-0.425,0.014-0.821,0.335-1.139c0.174-0.163,0.347-0.327,0.521-0.49c0.146-0.091,0.279-0.205,0.459-0.236
		c0.39-0.067,0.761-0.028,1.113,0.161c0.562,0.302,1.121,0.611,1.683,0.912c0.499,0.267,0.993,0.54,1.495,0.802
		c0.104,0.054,0.199,0.129,0.327,0.166C1.106-0.041,1.037-0.145,0.988-0.253C0.625-1.036,0.289-1.832-0.07-2.617
		c-0.157-0.344-0.316-0.688-0.461-1.038c-0.13-0.315-0.161-0.639-0.09-0.975c0.037-0.173,0.135-0.308,0.233-0.446
		c0.211-0.199,0.421-0.397,0.632-0.596c0.321-0.26,0.691-0.31,1.08-0.23c0.268,0.055,0.51,0.186,0.747,0.322
		c0.579,0.331,1.176,0.63,1.76,0.952C4.265-4.39,4.7-4.158,5.134-3.925c0.043,0.023,0.082,0.062,0.147,0.051
		C5.264-3.96,5.227-4.035,5.193-4.111c-0.33-0.723-0.649-1.451-0.975-2.176C4.009-6.752,3.792-7.213,3.614-7.691
		C3.493-8.015,3.504-8.34,3.591-8.669c0.038-0.145,0.146-0.245,0.223-0.365c0.217-0.204,0.434-0.409,0.651-0.613
		c0.176-0.122,0.36-0.211,0.581-0.234C5.345-9.912,5.629-9.86,5.886-9.723C6.64-9.321,7.394-8.919,8.144-8.51
		c0.467,0.255,0.938,0.499,1.406,0.751c0.032,0.017,0.069,0.055,0.103,0.025c0.033-0.03,0.002-0.071-0.009-0.107
		c-0.361-1.13-0.741-2.254-1.104-3.384c-0.146-0.453-0.292-0.907-0.447-1.357C8.026-12.774,8.024-12.964,8.164-13.133z"/>
	<path fill="#E1F4F3" d="M17.513-4.467c-0.065-0.267-0.244-0.458-0.426-0.651c-2.579-2.734-5.155-5.47-7.733-8.205
		c-0.05-0.053-0.102-0.103-0.153-0.154c0.024-0.051,0.05,0.003,0.075-0.002c2.698,2.863,5.395,5.726,8.093,8.589
		c0.034,0.099,0.127,0.158,0.169,0.252C17.568-4.573,17.602-4.512,17.513-4.467z"/>
	<path fill="#E8F6F6" d="M-3.809,15.801c-0.03,0.005-0.061,0.011-0.091,0.016C-6.8,12.74-9.699,9.664-12.596,6.585
		c-0.026-0.027-0.081-0.043-0.061-0.1c0.045,0.045,0.091,0.089,0.135,0.136c2.829,3.002,5.657,6.004,8.485,9.006
		C-3.971,15.699-3.903,15.767-3.809,15.801z"/>
	<path fill="#FBFDFD" d="M17.513-4.467c0.012-0.112-0.035-0.207-0.093-0.296c-0.026-0.04-0.053-0.077-0.051-0.127
		c0.161,0.17,0.32,0.342,0.483,0.51c0.038,0.039,0.038,0.056-0.003,0.093c-0.148,0.134-0.292,0.273-0.438,0.41
		C17.502-4.064,17.528-4.262,17.513-4.467z"/>
	<path fill="#FBFDFD" d="M9.277-13.479c-0.025,0.001-0.05,0.001-0.075,0.002c-0.184-0.13-0.386-0.118-0.591-0.076
		c0.093-0.088,0.188-0.173,0.278-0.264c0.031-0.032,0.045-0.031,0.074,0.002C9.065-13.701,9.172-13.591,9.277-13.479z"/>
</g>
</svg>
