<?xml version="1.0" encoding="utf-8"?>
<!-- Generator: Adobe Illustrator 17.0.0, SVG Export Plug-In . SVG Version: 6.00 Build 0)  -->
<!DOCTYPE svg PUBLIC "-//W3C//DTD SVG 1.1//EN" "http://www.w3.org/Graphics/SVG/1.1/DTD/svg11.dtd">
<svg version="1.1" id="Layer_1" xmlns="http://www.w3.org/2000/svg" xmlns:xlink="http://www.w3.org/1999/xlink" x="0px" y="0px"
	 width="393.333px" height="885.333px" viewBox="0 0 393.333 885.333" enable-background="new 0 0 393.333 885.333"
	 xml:space="preserve">
<g>
	<path fill="#00A9A5" d="M4.75,38.411c0-5.999,0-11.998,0-17.997c1.169-4.201,2.573-8.18,6.937-10.304
		c2.525-1.229,5.19-1.38,7.872-1.689c114.585-0.013,229.161-0.004,343.738,0.001c4.893,0,9.721,0.51,14.344,2.251
		c5.835,4.04,10.531,8.866,11.046,16.489c0,32.495,0,64.989,0,97.484c-1.067,5.711-1.286,11.59-4.469,16.805
		c-6.311,10.339-14.594,18.397-26.07,22.633c-23.78,8.777-47.901,16.589-71.747,25.182c-12.569,4.529-25.268,8.682-37.851,13.166
		c-1.272,0.453-2.685,0.654-3.887,2.021c3.081,2.283,6.742,3.036,10.184,4.058c11.61,3.448,22.984,7.6,34.512,11.285
		c18.793,6.007,37.482,12.332,56.235,18.464c5.445,1.781,10.99,3.336,16.176,5.873c12.911,6.316,21.697,16.45,24.616,30.35
		c3.642,17.344,1.359,33.954-11.599,47.45c-6.455,6.723-14.866,10.272-23.585,13.272c-18.654,6.417-37.343,12.739-55.917,19.388
		c-16.808,6.017-33.763,11.612-50.541,17.712c-0.328,0.119-0.733,0.126-0.913,0.687c11.186,4.211,22.707,7.465,33.96,11.494
		c14.805,5.301,29.903,9.711,44.781,14.808c10.499,3.597,21.15,6.819,31.71,10.283c15.483,5.078,26.224,15.119,31.471,30.658
		c2.5,7.404,2.451,15.192,1.54,22.765c-2.317,19.272-12.989,32.009-31.271,38.681c-25.926,9.462-52.122,18.146-78.096,27.468
		c-10.339,3.711-20.781,7.139-31.077,10.978c-0.575,0.214-1.221,0.317-1.621,0.963c0.007,1.343,1.193,1.354,2.06,1.646
		c22.701,7.636,45.492,15.004,68.236,22.509c13.988,4.616,28.013,9.121,41.957,13.87c17.554,5.978,29.85,23.416,30.189,41.95
		c0.192,10.549-1.049,20.664-6.907,29.649c-6.114,9.377-14.485,15.977-25.195,19.658c-29.515,10.144-58.908,20.64-88.428,30.771
		c-6.61,2.268-13.197,4.601-19.775,6.959c-0.987,0.354-2.218,0.473-2.871,1.937c5.385,2.389,11.039,3.907,16.55,5.732
		c26.895,8.91,53.872,17.571,80.742,26.559c6.158,2.06,12.472,3.735,18.384,6.414c17.275,7.827,26.794,21.328,27.375,40.291
		c0.791,25.827,0.38,51.675,0.393,77.515c0.001,1.498-0.062,2.979-0.312,4.472c-0.749,4.473-2.039,5.925-6.498,7.012
		c-1.796,0.749-3.678,0.618-5.548,0.618c-122.262-0.002-244.523,0-366.785-0.018c-1.347,0-2.749,0.347-4.043-0.358
		c0-4.499,0-8.998,0-13.498c0.932-15.123,10.375-24.32,22.405-31.395c5.367-3.156,11.671-4.342,17.576-6.328
		c32.527-10.938,65.165-21.546,97.691-32.489c0.918-0.309,1.967-0.424,2.806-1.574c-1.709-1.243-3.704-1.903-5.608-2.539
		c-25.914-8.659-51.557-18.091-77.393-26.974c-9.676-3.327-19.362-6.637-28.965-10.169c-11.257-4.14-19.339-12.031-25.39-22.207
		c-2.453-4.124-2.158-8.851-3.124-13.301c0-7.249,0-14.498,0-21.746c0.77-7.74,3.34-14.649,8.593-20.602
		c5.497-6.23,11.924-11.046,19.788-13.602c27.987-9.097,55.781-18.777,83.842-27.653c9.493-3.003,18.864-6.389,28.45-9.662
		c-0.663-1.601-1.974-1.796-3.064-2.165c-33.443-11.327-66.575-23.547-100.014-34.882c-6.998-2.372-14.034-4.654-20.004-9.068
		c-10.102-7.469-17.269-16.823-17.591-30.091c0-6.999,0-13.998,0-20.997c1.01-4.956,1.238-10.073,4.199-14.541
		c6.412-9.674,14.719-16.826,25.844-20.538c17.771-5.929,35.612-11.647,53.37-17.61c15.735-5.284,31.545-10.346,47.221-15.802
		c3.267-1.137,6.761-1.669,10.135-3.63c-3.139-2.406-6.736-3.046-10.044-4.151c-24.039-8.032-47.796-16.871-71.806-24.99
		c-10.516-3.556-21.061-7.088-31.445-11.041c-9.363-3.564-16.897-9.421-22.64-17.708c-2.96-4.271-3.861-9.092-4.834-13.965
		c0-8.499,0-16.997,0-25.496c0.914-12.09,7.284-21.009,16.831-27.721c6.578-4.624,14.239-7.155,21.91-9.489
		c18.741-5.702,37.143-12.433,55.778-18.456c13.776-4.453,27.501-9.062,41.226-13.667c1.348-0.452,2.972-0.488,4.04-2.107
		c-2.175-1.362-4.531-2.105-6.849-2.892c-22.093-7.507-44.068-15.356-66.118-22.988c-14.123-4.889-28.359-9.541-42.162-15.345
		c-9.347-3.931-16.076-10.728-21.348-19.187c-2.322-3.725-2.299-8.058-3.308-12.124c0-8.749,0-17.497,0-26.246
		c0.927-6.215,2.742-11.95,6.696-17.121c5.365-7.018,12.188-12.045,20.294-14.783c23.764-8.026,47.536-16.038,71.38-23.827
		c14.832-4.845,29.561-9.996,44.363-14.928c1.004-0.335,2.568-0.351,2.611-1.696c0.042-1.312-1.487-1.478-2.465-1.946
		c-31.412-15.045-63.078-29.551-94.526-44.522c-12.622-6.009-25.254-12.008-38.002-17.756C9.632,48.593,5.524,44.816,4.75,38.411z"
		/>
	<path fill="#E1F4F3" d="M378.121,13.105c-7.023-3.994-14.704-4.015-22.484-4.011C245.307,9.149,134.976,9.131,24.645,9.139
		c-2.121,0-4.243,0.11-6.364,0.169c-0.614-1.533,1.071-1.011,1.467-1.641c115.481,0,230.961,0,346.442,0
		c2.798,1.269,5.931,0.481,8.795,1.453C376.964,9.791,378.945,10.299,378.121,13.105z"/>
	<path fill="#E8F6F6" d="M381.93,876.752c-0.498,0.756-0.995,1.513-1.493,2.269c-124.106,0-248.211,0.003-372.317-0.046
		c-1.096,0-2.54,0.865-3.37-0.704c1.871-0.054,3.742-0.154,5.612-0.154c121.085-0.007,242.17-0.011,363.255,0.022
		C376.499,878.14,379.299,878.063,381.93,876.752z"/>
	<path fill="#FBFDFD" d="M378.121,13.105c-2.157-2.513-5.119-3.417-8.204-3.966c-1.373-0.244-2.705-0.418-3.727-1.473
		c6.874,0,13.749,0.066,20.621-0.049c1.615-0.027,1.959,0.309,1.925,1.925c-0.125,5.871-0.049,11.747-0.049,17.621
		C386.503,21.471,382.794,16.926,378.121,13.105z"/>
	<path fill="#FBFDFD" d="M19.747,7.667c-0.489,0.547-0.978,1.094-1.467,1.641C11.796,10.605,7.992,15.167,4.75,20.414
		c0-3.749,0.076-7.501-0.041-11.247C4.668,7.861,4.945,7.594,6.251,7.625C10.747,7.732,15.248,7.667,19.747,7.667z"/>
</g>
</svg>
